<svg viewBox="0 0 500 220" width="500" height="220" xmlns="http://www.w3.org/2000/svg"
  xmlns:xlink="http://www.w3.org/1999/xlink" preserveAspectRatio="none">


  <g>
    <g opacity="1" transform="rotate(0 255 205.064)">
    
      <svg x="55" y="05.064" width="16.4825" height="208.8721" viewBox="6.48 -25.44 2.3200000000000003 29.4" preserveAspectRatio="none">
        <g transform="matrix(1 0 0 1 0 0)" class="icon3435dd36d-076c-4caa-996a-81a8b6cecdfd">
          <path
            d="M8.68-12.24L8.68-12.24Q8.68-12 8.74-11Q8.80-10 8.80-8.16L8.80-8.16Q8.80-6.80 8.60-6.32L8.60-6.32Q8.68-5.96 8.68-5.58Q8.68-5.20 8.68-4.76L8.68-4.76Q8.68-3.84 8.58-2.86Q8.48-1.88 8.44-0.96L8.44-0.96Q8.48-0.48 8.48-0.02Q8.48 0.44 8.48 0.88L8.48 0.88Q8.48 1.36 8.48 1.90Q8.48 2.44 8.42 2.90Q8.36 3.36 8.18 3.66Q8 3.96 7.64 3.96L7.64 3.96Q7 3.96 6.84 3.72L6.84 3.72Q6.48 2.24 6.48-0.04L6.48-0.04Q6.48-1.40 6.66-3.12Q6.84-4.84 6.84-6.56L6.84-6.56Q6.84-8.08 6.60-9.52L6.60-9.52Q6.60-9.60 6.64-10.30Q6.68-11 6.72-11.88Q6.76-12.76 6.84-13.54Q6.92-14.32 7.04-14.56L7.04-14.56Q6.84-15.36 6.84-17.48L6.84-17.48Q6.84-18.12 6.84-18.82Q6.84-19.52 6.86-20.40Q6.88-21.28 6.98-22.42Q7.08-23.56 7.28-25.16L7.28-25.16Q7.32-25.44 7.84-25.44L7.84-25.44Q8.60-25.44 8.70-25.04Q8.80-24.64 8.80-23.72L8.80-23.72Q8.80-23.12 8.76-22.32Q8.72-21.52 8.64-20.48L8.64-20.48Q8.68-19.20 8.68-17.14Q8.68-15.08 8.68-12.24Z">
          </path>
        </g>
      </svg>
    </g>
  </g>

  <g>
    <g opacity="1" transform="rotate(0 301.3214 216.2937)">
    
      <svg x="101.3214" y="16.2937" width="333.6786" height="179.0332" viewBox="3.2 -23.12 96.32000000000001 51.68000000000001" preserveAspectRatio="none">
        <g transform="matrix(1 0 0 1 0 0)" class="companyName435dd36d-076c-4caa-996a-81a8b6cecdfd">
          <path
            d="M12.16-13.96L13.56-13.60Q14.20-13.20 14.20-12.08L14.20-12.08Q14.20-11.24 13.76-10.64Q13.32-10.04 12.56-10.04L12.56-10.04Q12.08-10.04 11.58-10.30Q11.08-10.56 10.52-10.56L10.52-10.56Q10.04-10.56 9.58-10.38Q9.12-10.20 8.52-9.60L8.52-9.60L7.32-8.40Q7.32-8.12 7.34-7.84Q7.36-7.56 7.36-7.24L7.36-7.24Q7.36-6.76 7.34-6.24Q7.32-5.72 7.28-5.12L7.28-5.12L7.64-1.48Q7.52 0.36 5.76 0.36L5.76 0.36Q4.84 0.36 4.40-0.22Q3.96-0.80 3.80-1.84Q3.64-2.88 3.66-4.28Q3.68-5.68 3.64-7.36L3.64-7.36Q3.56-9.88 3.52-9.88L3.52-9.88L3.52-9.84Q3.36-10.44 3.28-10.90Q3.20-11.36 3.20-11.72L3.20-11.72Q3.20-12.44 3.72-12.90Q4.24-13.36 5.24-13.36L5.24-13.36Q5.88-13.36 6.76-12.36L6.76-12.36Q7.68-13.08 8.18-13.44Q8.68-13.80 9.02-13.96Q9.36-14.12 9.68-14.14Q10-14.16 10.52-14.16L10.52-14.16Q10.96-14.20 11.34-14.12Q11.72-14.04 12.16-13.96L12.16-13.96Z M31.88-1.60L31.88-1.60Q30.60-0.32 29 0.58Q27.40 1.48 25.76 1.48L25.76 1.48Q24.28 1.48 21.96 1L21.96 1Q21.16 0.48 20.36-0.26Q19.56-1 18.92-1.90Q18.28-2.80 17.88-3.86Q17.48-4.92 17.48-6.04L17.48-6.04Q17.48-6.36 17.52-6.90Q17.56-7.44 17.62-7.98Q17.68-8.52 17.72-8.92Q17.76-9.32 17.76-9.32L17.76-9.32Q18.56-10.60 19.46-11.86Q20.36-13.12 22-14.08L22-14.08Q24.60-14.64 25.76-14.64L25.76-14.64Q26.36-14.64 26.80-14.58Q27.24-14.52 27.66-14.34Q28.08-14.16 28.50-13.80Q28.92-13.44 29.48-12.88L29.48-12.88Q30.12-12.20 30.50-11.96Q30.88-11.72 30.88-11.52L30.88-11.52Q30.88-7.84 28.60-6.52L28.60-6.52Q27.60-6.16 26-5.74Q24.40-5.32 21.64-4.96L21.64-4.96Q22.20-3.44 23.12-2.68Q24.04-1.92 25.20-1.92L25.20-1.92Q26.92-1.92 29.52-3.96L29.52-3.96Q29.92-4.32 30.52-4.32L30.52-4.32Q31.16-4.32 31.66-3.84Q32.16-3.36 32.16-2.64L32.16-2.64Q32.16-2.12 31.88-1.60ZM27.36-10.16L27.36-10.16Q26.60-11.40 25.56-11.40L25.56-11.40Q25.12-11.40 24.60-11.28Q24.08-11.16 23.54-10.94Q23-10.72 22.54-10.40Q22.08-10.08 21.80-9.64L21.80-9.64L21.40-8.44Q22.76-8.56 23.80-8.64Q24.84-8.72 25.60-8.88Q26.36-9.04 26.80-9.32Q27.24-9.60 27.36-10.16Z M49.92-3.84L49.92-3.84Q49.16-2.24 47.44-1.30Q45.72-0.36 43.60-0.36L43.60-0.36Q43.32-0.36 42.68-0.44Q42.04-0.52 41.26-0.76Q40.48-1 39.66-1.42Q38.84-1.84 38.16-2.54Q37.48-3.24 37.04-4.24Q36.60-5.24 36.60-6.60L36.60-6.60Q36.56-8.40 37.10-9.88Q37.64-11.36 38.84-12.88L38.84-12.88L40.12-14.52Q42.36-16.04 45.16-16.04L45.16-16.04Q46.68-16.04 47.58-15.48Q48.48-14.92 48.48-13.88L48.48-13.88Q48.48-13.08 47.90-12.58Q47.32-12.08 46.40-12.08L46.40-12.08Q46.36-12.08 46.10-12.14Q45.84-12.20 45.52-12.28Q45.20-12.36 44.88-12.42Q44.56-12.48 44.36-12.48L44.36-12.48Q43.44-12.48 42.26-11.52Q41.08-10.56 40.40-8.48L40.40-8.48Q40.12-7.60 40.12-7.04L40.12-7.04Q40.12-5.92 40.74-5.28Q41.36-4.64 42.12-4.30Q42.88-3.96 43.52-3.86Q44.16-3.76 44.20-3.76L44.20-3.76Q44.76-3.76 45.32-4.08Q45.88-4.40 46.34-4.80Q46.80-5.20 47.08-5.50Q47.36-5.80 47.32-5.80L47.32-5.80Q47.72-6.16 48.24-6.16L48.24-6.16Q48.88-6.16 49.42-5.50Q49.96-4.84 49.96-4.16L49.96-4.16Q49.96-3.96 49.92-3.84Z M64.44-1L64.44-1Q63.92-0.64 62.76-0.30Q61.60 0.04 60.36 0.28L60.36 0.28L58.72-0.04Q58.36-0.16 57.54-0.60Q56.72-1.04 55.88-1.94Q55.04-2.84 54.40-4.26Q53.76-5.68 53.76-7.72L53.76-7.72Q53.76-8.44 54.10-9.42Q54.44-10.40 55.12-11.26Q55.80-12.12 56.82-12.72Q57.84-13.32 59.20-13.32L59.20-13.32Q61.92-13.32 64.12-11.56L64.12-11.56Q66.04-8.92 66.04-5.72L66.04-5.72Q66.04-3.36 64.44-1ZM62.48-6.68L62.48-6.68Q62.28-8.24 61.50-9.14Q60.72-10.04 59.52-10.04L59.52-10.04Q58.72-10.04 58.02-9.26Q57.32-8.48 57.32-7L57.32-7Q57.32-6.40 57.48-5.74Q57.64-5.08 58.00-4.54Q58.36-4 58.92-3.66Q59.48-3.32 60.28-3.32L60.28-3.32Q61.56-3.32 62.04-4.10Q62.52-4.88 62.52-6.04L62.52-6.04Q62.52-6.20 62.50-6.34Q62.48-6.48 62.48-6.68Z M80.52-13.96L81.92-13.60Q82.56-13.20 82.56-12.08L82.56-12.08Q82.56-11.24 82.12-10.64Q81.68-10.04 80.92-10.04L80.92-10.04Q80.44-10.04 79.94-10.30Q79.44-10.56 78.88-10.56L78.88-10.56Q78.40-10.56 77.94-10.38Q77.48-10.20 76.88-9.60L76.88-9.60L75.68-8.40Q75.68-8.12 75.70-7.84Q75.72-7.56 75.72-7.24L75.72-7.24Q75.72-6.76 75.70-6.24Q75.68-5.72 75.64-5.12L75.64-5.12L76-1.48Q75.88 0.36 74.12 0.36L74.12 0.36Q73.20 0.36 72.76-0.22Q72.32-0.80 72.16-1.84Q72-2.88 72.02-4.28Q72.04-5.68 72-7.36L72-7.36Q71.92-9.88 71.88-9.88L71.88-9.88L71.88-9.84Q71.72-10.44 71.64-10.90Q71.56-11.36 71.56-11.72L71.56-11.72Q71.56-12.44 72.08-12.90Q72.60-13.36 73.60-13.36L73.60-13.36Q74.24-13.36 75.12-12.36L75.12-12.36Q76.04-13.08 76.54-13.44Q77.04-13.80 77.38-13.96Q77.72-14.12 78.04-14.14Q78.36-14.16 78.88-14.16L78.88-14.16Q79.32-14.20 79.70-14.12Q80.08-14.04 80.52-13.96L80.52-13.96Z M99.52-19.56L99.52-19.56Q99.40-19.20 99.40-18.16L99.40-18.16Q99.40-17.56 99.42-16.64Q99.44-15.72 99.44-15.12L99.44-15.12Q99.44-14.56 99.44-14.12Q99.44-13.68 99.36-13.40L99.36-13.40Q99.40-13.24 99.40-13.04Q99.40-12.84 99.40-12.60L99.40-12.60Q99.40-12.04 99.32-11.18Q99.24-10.32 99.24-10L99.24-10Q99.24-9.92 99.26-9.86Q99.28-9.80 99.28-9.72L99.28-9.72Q98.92-7.56 98.82-5.82Q98.72-4.08 98.54-2.84Q98.36-1.60 97.94-0.94Q97.52-0.28 96.52-0.28L96.52-0.28Q95.68-0.28 95.04-0.68L95.04-0.68L95.04-0.96Q93.84-0.44 91.84-0.44L91.84-0.44Q90.52-0.44 89.42-0.92Q88.32-1.40 87.52-2.26Q86.72-3.12 86.28-4.28Q85.84-5.44 85.84-6.80L85.84-6.80Q85.84-7.56 86.02-8.30Q86.20-9.04 86.48-9.70Q86.76-10.36 87.10-10.90Q87.44-11.44 87.76-11.80L87.76-11.80Q88.56-12.68 90.08-13.40Q91.60-14.12 93.32-14.12L93.32-14.12Q94.48-14.12 95.68-13.68L95.68-13.68Q95.68-14.28 95.74-15.12Q95.80-15.96 95.88-17.08L95.88-17.08L95.72-19.80Q95.72-20 95.70-20.14Q95.68-20.28 95.68-20.44L95.68-20.44Q95.68-21.76 96.02-22.44Q96.36-23.12 97.40-23.12L97.40-23.12Q98.04-23.12 98.42-22.96Q98.80-22.80 99.02-22.42Q99.24-22.04 99.32-21.34Q99.40-20.64 99.52-19.56ZM95.40-10L95.40-10Q94.60-10.56 93.44-10.56L93.44-10.56Q92.60-10.56 92.02-10.44Q91.44-10.32 91.04-10.02Q90.64-9.72 90.36-9.22Q90.08-8.72 89.80-8L89.80-8Q89.56-7.32 89.56-6.72L89.56-6.72Q89.56-5.44 90.46-4.72Q91.36-4 92.64-4L92.64-4Q93.76-4 94.80-4.80L94.80-4.80Q95.16-6.44 95.30-7.10Q95.44-7.76 95.44-8.24L95.44-8.24Q95.44-8.68 95.40-9.06Q95.36-9.44 95.36-9.72L95.36-9.72Q95.36-9.80 95.38-9.86Q95.40-9.92 95.40-10Z M26.04 25.48L26.04 25.72Q26.04 26.24 25.46 26.58Q24.88 26.92 24.20 26.92L24.20 26.92Q23.40 26.92 23.02 26.40Q22.64 25.88 22.48 25.06Q22.32 24.24 22.30 23.24Q22.28 22.24 22.24 21.32L22.24 21.32Q22.16 21.04 22.04 20.52Q21.92 20 21.84 19.20L21.84 19.20Q20.76 18 19.24 18L19.24 18Q18.68 18 18.12 18.10Q17.56 18.20 17.08 18.54Q16.60 18.88 16.20 19.56Q15.80 20.24 15.56 21.40L15.56 21.40Q15.60 21.60 15.60 22.12L15.60 22.12Q15.60 22.56 15.54 23.18Q15.48 23.80 15.40 24.60L15.40 24.60L15.40 24.80Q15.40 24.96 15.40 25.58Q15.40 26.20 15.24 26.86Q15.08 27.52 14.66 28.04Q14.24 28.56 13.44 28.56L13.44 28.56Q12.72 28.56 12.16 28.14Q11.60 27.72 11.60 27.12L11.60 27.12Q11.60 27.04 11.66 26.52Q11.72 26 11.82 25.34Q11.92 24.68 11.98 24.02Q12.04 23.36 12.04 22.96L12.04 22.96Q12.04 22.28 11.92 21.60L11.92 21.60L11.92 21.08Q11.92 19.04 11.12 17.24L11.12 17.24Q10.52 16.76 9.24 16.60L9.24 16.60Q9 16.68 8.64 16.84Q8.28 17 7.92 17.50Q7.56 18 7.28 18.92Q7 19.84 6.88 21.40L6.88 21.40L6.76 23.04Q7 24.24 7 25.12L7 25.12Q7 26.16 6.66 26.78Q6.32 27.40 5.16 27.40L5.16 27.40Q4.56 27.40 4.18 27.26Q3.80 27.12 3.58 26.62Q3.36 26.12 3.28 25.14Q3.20 24.16 3.20 22.52L3.20 22.52Q3.20 21.20 3.36 19.94Q3.52 18.68 3.84 16.68L3.84 16.68Q3.72 16 3.50 15.42Q3.28 14.84 3.28 14.52L3.28 14.52Q3.28 13.84 3.88 13.32Q4.48 12.80 5.28 12.80L5.28 12.80Q5.88 12.80 6.36 13.16L6.36 13.16L7.04 14.04Q7.52 13.64 7.88 13.42Q8.24 13.20 8.52 13.08Q8.80 12.96 9.08 12.94Q9.36 12.92 9.72 12.92L9.72 12.92Q10.24 12.92 10.54 12.92Q10.84 12.92 11.16 13.04Q11.48 13.16 11.90 13.42Q12.32 13.68 13.08 14.20L13.08 14.20Q13.56 14.52 14.36 16.28L14.36 16.28L14.60 16Q14.92 15.72 15.48 15.44Q16.04 15.16 16.70 14.94Q17.36 14.72 18.06 14.58Q18.76 14.44 19.32 14.44L19.32 14.44Q20.64 14.44 21.60 14.70Q22.56 14.96 23.24 15.46Q23.92 15.96 24.44 16.74Q24.96 17.52 25.44 18.52L25.44 18.52L25.44 18.80Q25.44 19.12 25.52 19.96Q25.60 20.80 25.68 21.64Q25.76 22.48 25.84 23.10Q25.92 23.72 25.92 23.64L25.92 23.64Q25.92 23.68 25.94 23.90Q25.96 24.12 25.98 24.42Q26 24.72 26.02 25.02Q26.04 25.32 26.04 25.48L26.04 25.48Z M46.32 23.28L46.32 23.28Q47.04 23.76 47.04 24.44L47.04 24.44Q47.04 24.80 46.84 25.18Q46.64 25.56 46.32 25.86Q46 26.16 45.64 26.36Q45.28 26.56 44.92 26.56L44.92 26.56Q44.60 26.44 44.16 26.14Q43.72 25.84 43.28 25.46Q42.84 25.08 42.46 24.60Q42.08 24.12 41.88 23.64L41.88 23.64L41.60 24.32Q40.84 25.76 39.20 27.04L39.20 27.04Q37.20 27.40 36.88 27.40L36.88 27.40Q36.12 27.40 35.04 27.16L35.04 27.16L32.84 25.60Q31.40 24.24 31.40 21.88L31.40 21.88Q31.40 21.04 31.66 20.02Q31.92 19 32.42 17.96Q32.92 16.92 33.64 15.92Q34.36 14.92 35.32 14.12L35.32 14.12Q36.48 13.68 37.56 13.38Q38.64 13.08 39.20 13L39.20 13Q39.96 12.16 41 12.16L41 12.16Q41.60 12.16 42.06 12.74Q42.52 13.32 42.86 14.20Q43.20 15.08 43.40 16.14Q43.60 17.20 43.68 18.16L43.68 18.16L44.20 20.28Q44.44 21.28 44.98 22Q45.52 22.72 46.32 23.28ZM40.24 18.84L40.24 18.84Q40.16 18.80 39.64 16.32L39.64 16.32Q39.44 16.32 39.04 16.32Q38.64 16.32 38.10 16.54Q37.56 16.76 36.94 17.30Q36.32 17.84 35.76 18.92L35.76 18.92Q34.92 20.48 34.92 22.04L34.92 22.04Q35.60 23.36 37.04 24.12L37.04 24.12Q37.48 24 37.78 23.84Q38.08 23.68 38.32 23.40Q38.56 23.12 38.78 22.70Q39 22.28 39.28 21.64L39.28 21.64Q39.80 20.72 40.02 20.02Q40.24 19.32 40.24 18.84Z M63.64 23.56L63.64 23.56L63.64 23.88Q63.64 24.12 63.66 24.74Q63.68 25.36 63.54 26Q63.40 26.64 63 27.14Q62.60 27.64 61.80 27.64L61.80 27.64Q60.24 27.64 59.96 26.40L59.96 26.40Q60 26.16 60 25.86Q60 25.56 60 25.20L60 25.20Q60 25.04 60 24.02Q60 23 59.94 21.80Q59.88 20.60 59.68 19.54Q59.48 18.48 59.08 18.20L59.08 18.20Q58.16 17.56 57.44 17.56L57.44 17.56Q56.48 17.56 55.82 18.14Q55.16 18.72 54.72 20.40L54.72 20.40Q54.68 20.96 54.64 21.66Q54.60 22.36 54.52 23.24L54.52 23.24Q54.52 23.92 54.56 24.74Q54.60 25.56 54.68 26.60L54.68 26.60Q54.68 27.36 54.08 27.86Q53.48 28.36 52.72 28.36L52.72 28.36Q52.12 28.36 51.76 28.04Q51.40 27.72 51.22 27.20Q51.04 26.68 50.98 26.08Q50.92 25.48 50.92 24.88L50.92 24.88Q50.92 24.44 50.96 23.98Q51.00 23.52 51.08 23.04L51.08 23.04L51.40 19.20L51.72 17.28Q51.64 16.80 51.40 16.24Q51.16 15.68 51.16 15.36L51.16 15.36Q51.16 14.68 51.70 14.12Q52.24 13.56 53.04 13.56L53.04 13.56Q53.60 13.56 53.88 13.78Q54.16 14 54.80 14.84L54.80 14.84Q55.60 14.48 56.08 14.38Q56.56 14.28 57.20 14.28L57.20 14.28Q59.28 14.28 60.86 15.26Q62.44 16.24 62.84 18.52L62.84 18.52Q62.96 19.36 63.06 19.92Q63.16 20.48 63.24 21Q63.32 21.52 63.40 22.10Q63.48 22.68 63.64 23.56Z M76.00 9.16L76.00 9.16Q76.08 9.48 76.08 9.76L76.08 9.76Q76.08 11.04 75.32 11.92L75.32 11.92Q74.12 12.40 72.92 12.40L72.92 12.40Q72.16 11.92 71.66 11.30Q71.16 10.68 71.16 10.08L71.16 10.08Q71.16 9.56 72.36 7.52L72.36 7.52Q72.88 7.60 73.46 7.64Q74.04 7.68 74.54 7.84Q75.04 8 75.42 8.30Q75.80 8.60 76.00 9.16ZM74.72 15.84L74.72 15.84L74.72 16.36Q74.72 16.56 74.72 16.80Q74.72 17.04 74.64 17.24L74.64 17.24L74.32 19.04L74.32 19.40Q74.32 19.64 74.28 20.04Q74.24 20.44 74.18 20.84Q74.12 21.24 74.08 21.60Q74.04 21.96 74.04 22.20L74.04 22.20Q74.04 22.40 74.06 22.52Q74.08 22.64 74.08 22.84L74.08 22.84Q74.08 23.20 74.00 23.62Q73.92 24.04 73.92 24.56L73.92 24.56Q73.92 25.04 74.04 25.56L74.04 25.56Q73.60 27.36 72.20 27.36L72.20 27.36Q70.24 27.36 70.24 23.68L70.24 23.68Q70.24 22.44 70.36 21.22Q70.48 20 70.64 18.96Q70.80 17.92 70.98 17.14Q71.16 16.36 71.28 15.92L71.28 15.92Q71.88 15.04 72.96 15.04L72.96 15.04Q74.00 15.04 74.72 15.84Z M96.28 23.28L96.28 23.28Q97.00 23.76 97.00 24.44L97.00 24.44Q97.00 24.80 96.80 25.18Q96.60 25.56 96.28 25.86Q95.96 26.16 95.60 26.36Q95.24 26.56 94.88 26.56L94.88 26.56Q94.56 26.44 94.12 26.14Q93.68 25.84 93.24 25.46Q92.80 25.08 92.42 24.60Q92.04 24.12 91.84 23.64L91.84 23.64L91.56 24.32Q90.80 25.76 89.16 27.04L89.16 27.04Q87.16 27.40 86.84 27.40L86.84 27.40Q86.08 27.40 85.00 27.16L85.00 27.16L82.80 25.60Q81.36 24.24 81.36 21.88L81.36 21.88Q81.36 21.04 81.62 20.02Q81.88 19 82.38 17.96Q82.88 16.92 83.60 15.92Q84.32 14.92 85.28 14.12L85.28 14.12Q86.44 13.68 87.52 13.38Q88.60 13.08 89.16 13L89.16 13Q89.92 12.16 90.96 12.16L90.96 12.16Q91.56 12.16 92.02 12.74Q92.48 13.32 92.82 14.20Q93.16 15.08 93.36 16.14Q93.56 17.20 93.64 18.16L93.64 18.16L94.16 20.28Q94.40 21.28 94.94 22Q95.48 22.72 96.28 23.28ZM90.20 18.84L90.20 18.84Q90.12 18.80 89.60 16.32L89.60 16.32Q89.40 16.32 89.00 16.32Q88.60 16.32 88.06 16.54Q87.52 16.76 86.90 17.30Q86.28 17.84 85.72 18.92L85.72 18.92Q84.88 20.48 84.88 22.04L84.88 22.04Q85.56 23.36 87.00 24.12L87.00 24.12Q87.44 24 87.74 23.84Q88.04 23.68 88.28 23.40Q88.52 23.12 88.74 22.70Q88.96 22.28 89.24 21.64L89.24 21.64Q89.76 20.72 89.98 20.02Q90.20 19.32 90.20 18.84Z">
          </path>
        </g>
      </svg>
    </g>
  </g>

</svg>